<?xml version="1.0" encoding="UTF-8"?>
<!-- Generated by Pixelmator Pro 3.5.8 -->
<svg width="1000" height="1000" viewBox="0 0 1000 1000" xmlns="http://www.w3.org/2000/svg" xmlns:xlink="http://www.w3.org/1999/xlink">
    <radialGradient id="radialGradient1" cx="132.765625" cy="152.734375" r="677.048468" fx="132.765625" fy="152.734375" gradientUnits="userSpaceOnUse">
        <stop offset="0" stop-color="#ffffff" stop-opacity="1"/>
        <stop offset="1" stop-color="#a7b1c2" stop-opacity="1"/>
    </radialGradient>
    <path id="Shape" fill="url(#radialGradient1)" fill-rule="evenodd" stroke="#6b6b6b" stroke-width="20" stroke-linecap="round" d="M 990 990 L 613.96875 990 L 613.78125 939.328125 L 612.1875 931.828125 L 609.359375 924.84375 L 605.4375 918.328125 L 600.515625 912.28125 L 593.25 905.46875 L 583.046875 898.296875 L 571.296875 892.109375 L 559.296875 887.34375 L 545.171875 883.21875 L 529.984375 880.21875 L 513.953125 878.453125 L 500 878 L 486.03125 878.453125 L 470 880.21875 L 454.8125 883.21875 L 440.6875 887.34375 L 428.6875 892.109375 L 416.9375 898.296875 L 406.734375 905.46875 L 399.46875 912.28125 L 394.546875 918.328125 L 390.625 924.84375 L 387.796875 931.828125 L 386.203125 939.328125 L 386.03125 990 L 10 990 L 10 10 L 386.03125 10 L 386.203125 60.65625 L 387.796875 68.15625 L 390.625 75.140625 L 394.546875 81.65625 L 399.46875 87.703125 L 406.734375 94.515625 L 416.9375 101.6875 L 428.6875 107.875 L 440.6875 112.640625 L 454.8125 116.765625 L 470 119.765625 L 486.03125 121.53125 L 500 122 L 513.953125 121.53125 L 529.984375 119.765625 L 545.171875 116.765625 L 559.296875 112.640625 L 571.296875 107.875 L 583.046875 101.6875 L 593.25 94.515625 L 600.515625 87.703125 L 605.4375 81.65625 L 609.359375 75.140625 L 612.1875 68.15625 L 613.78125 60.65625 L 613.96875 10 L 990 10 Z"/>
    <g id="Paintbrush-copy">
        <path id="Path-copy-3" fill="none" stroke="#000000" stroke-width="9.783096" stroke-linecap="round" stroke-linejoin="round" d="M 486.59375 438.1875 L 484.9375 440.1875 L 483.515625 442.03125 L 482 444.15625 L 480.84375 445.921875 L 479.59375 448.078125 L 478.96875 449.265625 L 478.46875 450.359375 L 478.03125 451.359375 L 477.640625 452.328125 L 477.53125 452.640625 L 477.296875 453.359375 L 476.765625 454.96875 L 476.328125 456.453125 L 475.9375 457.9375 L 475.296875 460.5 L 474.59375 463.8125 L 474.03125 467.078125 L 473.53125 470.75 L 473.140625 474.375 L 472.875 477.90625 L 472.671875 481.765625 L 472.5625 485.546875 L 472.53125 489.359375 L 472.59375 493.109375 L 472.71875 496.9375 L 472.9375 500.859375 L 472.921875 500.859375 L 473.203125 504.59375 L 473.546875 508.453125 L 473.9375 512.140625 L 474.390625 515.921875 L 474.890625 519.53125 L 475.421875 523.015625 L 475.4375 523.015625 L 476.015625 526.484375 L 476.640625 529.84375 L 477.296875 533.09375 L 477.984375 536.234375 L 478.6875 539.234375 L 479.390625 542.0625 L 480.109375 544.71875 L 480.84375 547.203125 L 481.59375 549.546875 L 482.3125 551.625 L 483.078125 553.640625 L 483.6875 555.140625 L 484.03125 555.875 L 484.390625 556.609375 L 485.28125 558.375 L 485.265625 558.375 L 486.734375 561.171875 L 489.265625 565.71875 L 492.21875 570.859375 L 492.234375 570.859375 L 497.359375 579.53125 L 505.234375 592.703125 L 511.609375 603.40625 L 515.953125 610.78125 L 520.296875 618.28125 L 524.609375 625.8125 L 528.796875 633.359375 L 532.8125 640.8125 L 535.65625 646.28125 L 537.46875 649.90625 L 539.21875 653.4375 L 540.875 656.921875 L 541.671875 658.640625 L 542.84375 661.203125 L 545.046875 666.171875 L 547.09375 670.921875 L 549.015625 675.59375 L 550.828125 680.15625 L 552.59375 684.6875 L 554.28125 689.28125 L 555.953125 693.921875 L 558.453125 701.125 L 561.953125 711.5 L 565.828125 723.140625 L 570.265625 736.453125 L 572.8125 744 L 573.484375 746.015625 L 574.640625 749.890625 L 575.609375 753.625 L 576.421875 757.25 L 577.046875 760.734375 L 577.53125 764.078125 L 577.859375 767.296875 L 578.046875 770.390625 L 578.09375 773.328125 L 578.046875 776.15625 L 577.859375 778.875 L 577.5625 781.421875 L 577.1875 783.875 L 576.734375 786.1875 L 576.203125 788.359375 L 575.609375 790.421875 L 574.953125 792.34375 L 574.265625 794.15625 L 573.53125 795.828125 L 572.796875 797.390625 L 572.015625 798.828125 L 571.265625 800.140625 L 570.5 801.3125 L 569.765625 802.40625 L 568.734375 803.78125 L 567.5 805.25 L 566.90625 805.859375 L 566.90625 807.6875 L 564.359375 808.078125 L 562.59375 809.484375 L 561.34375 808.453125 L 560.5 808.515625 L 558.59375 808.53125 L 556.828125 808.421875 L 555.5625 808.296875 L 554.15625 808.125 L 552.640625 807.84375 L 551.078125 807.515625 L 549.40625 807.09375 L 547.640625 806.5625 L 545.828125 805.9375 L 543.921875 805.203125 L 541.953125 804.34375 L 539.9375 803.34375 L 537.859375 802.203125 L 535.765625 800.921875 L 533.609375 799.5 L 531.421875 797.890625 L 529.21875 796.125 L 526.984375 794.1875 L 524.75 792.0625 L 522.484375 789.75 L 520.234375 787.21875 L 517.96875 784.5 L 515.71875 781.5625 L 513.46875 778.390625 L 511.25 775 L 510.15625 773.21875 L 506.015625 766.4375 L 498.65625 754.453125 L 492.21875 744.015625 L 486.53125 734.671875 L 482.609375 728.125 L 480.140625 723.84375 L 477.71875 719.609375 L 475.359375 715.359375 L 473.03125 711.015625 L 470.703125 706.5625 L 468.375 701.90625 L 465.984375 697.046875 L 464.765625 694.484375 L 463.96875 692.78125 L 462.375 689.296875 L 460.78125 685.671875 L 459.1875 681.953125 L 456.8125 676.234375 L 453.671875 668.375 L 450.609375 660.328125 L 447.59375 652.1875 L 444.640625 644.03125 L 441.796875 635.96875 L 437.6875 624.21875 L 432.65625 609.71875 L 429.296875 600.171875 L 427.265625 594.625 L 425.421875 589.765625 L 425.4375 589.765625 L 424.234375 586.84375 L 424.21875 586.84375 L 423.4375 585.015625 L 423.125 584.328125 L 422.765625 583.59375 L 422.015625 582.125 L 420.953125 580.234375 L 419.8125 578.328125 L 418.515625 576.265625 L 417.09375 574.140625 L 415.5 571.859375 L 413.78125 569.46875 L 411.953125 567.03125 L 409.984375 564.484375 L 407.921875 561.90625 L 405.734375 559.25 L 403.5 556.625 L 401.140625 553.9375 L 398.625 551.171875 L 396.078125 548.4375 L 393.46875 545.734375 L 390.765625 543 L 388.03125 540.359375 L 385.21875 537.734375 L 382.4375 535.234375 L 379.453125 532.65625 L 376.515625 530.21875 L 373.546875 527.859375 L 370.65625 525.703125 L 367.546875 523.484375 L 364.515625 521.453125 L 361.640625 519.640625 L 358.640625 517.890625 L 355.625 516.28125 L 353.25 515.109375 L 351.875 514.484375 L 350.3125 513.796875 L 348.96875 513.25 L 348.1875 512.953125 L 347.828125 512.8125 L 347.828125 512.828125 L 346.71875 512.453125 L 346.71875 512.4375 L 345.9375 512.203125 L 344.90625 511.9375 L 343.390625 511.59375 L 340.984375 511.1875 L 338.625 510.890625 L 336.390625 510.71875 L 333.71875 510.609375 L 331.265625 510.59375 L 328.671875 510.65625 L 325.859375 510.796875 L 323.25 510.984375 L 320.421875 511.25 L 317.734375 511.546875 L 314.921875 511.890625 L 310.828125 512.46875 L 305.5 513.328125 L 300.40625 514.21875 L 295.5625 515.078125 L 291.109375 515.875 L 287.078125 516.5 L 284.421875 516.828125 L 282.75 516.984375 L 281.140625 517.0625 L 279.609375 517.03125 L 278.0625 516.84375 L 276.859375 516.5 L 276.046875 516.15625 L 275.453125 515.828125 L 274.875 515.421875 L 274.078125 514.71875 L 273.375 513.953125 L 272.75 513.171875 L 271.875 511.921875 L 270.625 509.96875 L 269.25 507.6875 L 267.8125 505.078125 L 266.25 502.171875 L 264.609375 498.953125 L 262 493.75 L 258.28125 486.0625 L 254.390625 477.78125 L 250.4375 469.171875 L 246.515625 460.484375 L 242.734375 452 L 237.46875 440.0625 L 229.625 421.953125 L 228.421875 419.125 L 186.140625 328.453125 L 184.40625 326.09375 L 182.625 323.640625 L 180.46875 320.515625 L 178.015625 316.84375 L 175.375 312.703125 L 173.34375 309.328125 L 171.96875 306.984375 L 170.59375 304.5625 L 169.25 302.078125 L 167.9375 299.5625 L 166.65625 296.984375 L 165.4375 294.359375 L 164.28125 291.71875 L 163.21875 289.078125 L 162.234375 286.421875 L 161.375 283.765625 L 160.609375 281.109375 L 159.984375 278.453125 L 159.515625 275.84375 L 159.28125 273.90625 L 159.15625 272.578125 L 159.109375 271.265625 L 159.109375 269.953125 L 159.15625 268.703125 L 159.265625 267.4375 L 159.4375 266.140625 L 159.65625 264.953125 L 159.703125 264.75 L 159.71875 264.515625 L 159.890625 263.078125 L 160.234375 261.5625 L 160.75 260.0625 L 161.5 258.546875 L 162.21875 257.484375 L 162.765625 256.796875 L 163.4375 256.0625 L 164.125 255.4375 L 164.8125 254.90625 L 165.234375 254.625 L 166.109375 253.640625 L 167.125 252.59375 L 168.1875 251.53125 L 169.921875 249.9375 L 172.40625 247.859375 L 175.109375 245.75 L 178.015625 243.640625 L 181.09375 241.546875 L 184.34375 239.421875 L 187.796875 237.28125 L 191.375 235.171875 L 195.09375 233.03125 L 198.953125 230.875 L 202.9375 228.734375 L 207.015625 226.59375 L 213.28125 223.375 L 221.9375 219.109375 L 230.765625 214.875 L 239.671875 210.71875 L 248.59375 206.609375 L 261.6875 200.65625 L 274.109375 195.015625 L 281.859375 191.453125 L 285.546875 189.734375 L 287.296875 188.90625 L 290.84375 187.15625 L 294.59375 185.265625 L 298.375 183.296875 L 298.375 183.3125 L 304.1875 180.203125 L 312.28125 175.78125 L 320.53125 171.25 L 328.90625 166.6875 L 335.21875 163.3125 L 339.4375 161.078125 L 343.640625 158.9375 L 347.8125 156.84375 L 351.96875 154.828125 L 356.078125 152.921875 L 360.140625 151.125 L 364.15625 149.453125 L 368.125 147.921875 L 372.015625 146.515625 L 375.8125 145.3125 L 378.625 144.515625 L 380.484375 144.0625 L 382.3125 143.640625 L 384.140625 143.265625 L 385.921875 142.96875 L 387.671875 142.703125 L 389.4375 142.515625 L 391.1875 142.390625 L 392.859375 142.34375 L 394.5625 142.34375 L 396.21875 142.4375 L 397.875 142.59375 L 399.5 142.859375 L 401.0625 143.203125 L 402.609375 143.625 L 404.15625 144.15625 L 405.640625 144.78125 L 407.0625 145.515625 L 407.828125 145.984375 L 408.515625 146.421875 L 409.765625 147.4375 L 410.984375 148.625 L 412.109375 149.9375 L 413.1875 151.328125 L 414.234375 152.828125 L 415.296875 154.421875 L 416.34375 156.15625 L 417.34375 157.921875 L 418.390625 159.78125 L 419.890625 162.671875 L 421.875 166.671875 L 423.75 170.765625 L 425.546875 174.828125 L 427.234375 178.765625 L 429.46875 184.234375 L 432.625 192.4375 L 433 193.484375 L 485.078125 305.15625 L 484.984375 305.203125 L 492.859375 320.96875 L 498.625 332.65625 L 502.703125 341.03125 L 506.84375 349.609375 L 510.890625 358.171875 L 514.734375 366.46875 L 518.234375 374.28125 L 520.546875 379.609375 L 521.9375 382.9375 L 523.1875 386 L 524.234375 388.78125 L 525.125 391.296875 L 525.828125 393.515625 L 526.203125 395.015625 L 526.390625 396 L 526.515625 397 L 526.546875 398.015625 L 526.484375 398.765625 L 526.359375 399.421875 L 526.109375 400.265625 L 525.578125 401.421875 L 524.734375 402.734375 L 523.78125 403.90625 L 522.71875 405.09375 L 521.515625 406.28125 L 519.546875 408.125 L 516.453125 410.796875 L 513 413.703125 L 509.203125 416.859375 L 505.265625 420.1875 L 501.125 423.765625 L 498.109375 426.484375 L 496.03125 428.40625 L 496.015625 428.390625 L 494.09375 430.25 L 492.078125 432.25 L 490.171875 434.21875 L 488.421875 436.109375 Z"/>
        <path id="Path" fill="#e5bb6f" fill-rule="evenodd" stroke="none" d="M 232.935547 417.216797 L 190.349609 325.892578 C 190.349609 325.892578 202.764679 312.851501 210.921875 309.822266 C 218.188385 307.123779 224.960098 305.315308 234.148438 308.707031 C 243.336777 312.098694 259.089844 308.951172 259.089844 308.951172 L 285.75 294.361328 C 285.75 294.361328 298.697845 288.971497 311.990234 295.078125 C 325.282623 301.184753 330.310547 297.328125 330.310547 297.328125 C 330.310547 297.328125 346.781952 277.919434 349.822266 272.039063 C 352.862579 266.158691 371.992188 245.507813 371.992188 245.507813 C 371.992188 245.507813 383.439819 242.993042 391.439453 238.599609 C 399.439087 234.206238 405.984375 218.863281 405.984375 218.863281 C 405.984375 218.863281 413.92041 202.048096 417.869141 200.369141 C 421.816467 198.690735 428.503052 195.408569 428.507813 195.40625 C 428.507813 195.40625 428.509766 195.40625 428.509766 195.40625 L 478.537109 302.691406 L 351.746094 361.814453 L 348.199219 363.46875 L 232.935547 417.216797 Z M 164.576172 265.476563 C 164.690186 262.699219 165.647583 259.96051 168.455078 258.392578 C 166.73288 260.454956 165.518631 262.448242 164.894531 264.359375 C 164.775345 264.724365 164.670441 265.098022 164.576172 265.476563 Z"/>
        <mask id="mask1" maskUnits="userSpaceOnUse" maskContentUnits="userSpaceOnUse" mask-type="alpha">
            <path id="path1" fill="#e5bb6f" fill-rule="evenodd" stroke="none" d="M 232.935547 417.216797 L 190.349609 325.892578 C 190.349609 325.892578 202.764679 312.851501 210.921875 309.822266 C 218.188385 307.123779 224.960098 305.315308 234.148438 308.707031 C 243.336777 312.098694 259.089844 308.951172 259.089844 308.951172 L 285.75 294.361328 C 285.75 294.361328 298.697845 288.971497 311.990234 295.078125 C 325.282623 301.184753 330.310547 297.328125 330.310547 297.328125 C 330.310547 297.328125 346.781952 277.919434 349.822266 272.039063 C 352.862579 266.158691 371.992188 245.507813 371.992188 245.507813 C 371.992188 245.507813 383.439819 242.993042 391.439453 238.599609 C 399.439087 234.206238 405.984375 218.863281 405.984375 218.863281 C 405.984375 218.863281 413.92041 202.048096 417.869141 200.369141 C 421.816467 198.690735 428.503052 195.408569 428.507813 195.40625 C 428.507813 195.40625 428.509766 195.40625 428.509766 195.40625 L 478.537109 302.691406 L 351.746094 361.814453 L 348.199219 363.46875 L 232.935547 417.216797 Z M 164.576172 265.476563 C 164.690186 262.699219 165.647583 259.96051 168.455078 258.392578 C 166.73288 260.454956 165.518631 262.448242 164.894531 264.359375 C 164.775345 264.724365 164.670441 265.098022 164.576172 265.476563 Z"/>
        </mask>
        <g id="Group" mask="url(#mask1)">
            <path id="path2" fill="none" stroke="#000000" stroke-width="1.956619" stroke-linecap="round" stroke-linejoin="round" d="M 194.25444 311.118347 L 235.599594 399.783325 M 207.554184 304.916626 L 248.899338 393.581543 M 260.279968 281.409607 L 301.625122 370.074585 M 267.01944 275.028564 L 308.364594 363.693542 M 287.646606 272.966125 L 327.337952 358.084473 M 335.112244 249.753052 L 376.457397 338.41803 M 343.151825 243.845276 L 384.496979 332.510254 M 377.257965 229.020752 L 418.603119 317.68573 M 403.329285 203.910156 L 448.395508 300.554993 M 409.774811 192.268982 L 458.562103 296.893677"/>
        </g>
        <path id="path3" fill="#755212" fill-rule="evenodd" stroke="#000000" stroke-width="1.956619" stroke-linecap="round" stroke-linejoin="round" d="M 483.65625 435.59375 L 481.921875 437.6875 L 480.3125 439.78125 L 478.8125 441.875 L 477.421875 444 L 476.203125 446.109375 L 475.40625 447.640625 L 474.90625 448.734375 L 474.453125 449.78125 L 474.015625 450.859375 L 473.84375 451.34375 L 473.578125 452.125 L 473.046875 453.734375 L 472.578125 455.359375 L 472.5625 455.359375 L 472.125 456.984375 L 472.140625 456.984375 L 471.5 459.546875 L 470.765625 462.984375 L 470.78125 462.984375 L 470.15625 466.59375 L 469.65625 470.21875 L 469.25 473.953125 L 468.953125 477.703125 L 468.96875 477.703125 L 468.765625 481.5625 L 468.640625 485.4375 L 468.625 489.328125 L 468.6875 493.25 L 468.8125 497.15625 L 469.03125 501.078125 L 469.015625 501.078125 L 469.296875 504.9375 L 469.640625 508.78125 L 470.046875 512.609375 L 470.5 516.359375 L 471.015625 520.0625 L 471.578125 523.671875 L 472.171875 527.203125 L 472.8125 530.640625 L 473.484375 533.96875 L 473.46875 533.96875 L 474.171875 537.140625 L 474.890625 540.1875 L 475.625 543.109375 L 475.609375 543.109375 L 476.34375 545.828125 L 476.359375 545.828125 L 477.125 548.40625 L 477.90625 550.828125 L 477.890625 550.828125 L 478.640625 553.015625 L 478.65625 553.015625 L 479.40625 555 L 480.140625 556.78125 L 480.515625 557.59375 L 480.890625 558.375 L 481.78125 560.140625 L 483.328125 563.078125 L 485.890625 567.671875 L 488.859375 572.84375 L 494 581.546875 L 501.875 594.71875 L 508.25 605.40625 L 512.578125 612.75 L 516.90625 620.21875 L 521.1875 627.734375 L 525.359375 635.234375 L 529.34375 642.625 L 532.171875 648.0625 L 533.96875 651.640625 L 535.6875 655.140625 L 537.34375 658.578125 L 538.109375 660.265625 L 539.28125 662.8125 L 541.453125 667.734375 L 543.5 672.453125 L 545.390625 677.046875 L 547.1875 681.578125 L 548.921875 686.0625 L 550.609375 690.609375 L 552.265625 695.21875 L 554.75 702.375 L 558.234375 712.734375 L 562.109375 724.375 L 566.546875 737.703125 L 569.09375 745.25 L 569.75 747.1875 L 570.859375 750.9375 L 571.8125 754.546875 L 572.578125 758.03125 L 573.1875 761.359375 L 573.640625 764.546875 L 573.953125 767.609375 L 574.140625 770.546875 L 574.1875 773.328125 L 574.140625 775.984375 L 573.953125 778.53125 L 573.6875 780.90625 L 573.34375 783.1875 L 572.90625 785.34375 L 572.421875 787.359375 L 571.875 789.25 L 571.265625 791.015625 L 570.640625 792.6875 L 569.96875 794.203125 L 569.296875 795.625 L 568.609375 796.921875 L 567.921875 798.109375 L 567.234375 799.15625 L 566.578125 800.125 L 565.65625 801.359375 L 564.59375 802.625 L 563.46875 803.78125 L 563 804.15625 L 563 804.328125 L 562.734375 804.375 L 562.640625 804.4375 L 562.578125 804.390625 L 561.921875 804.484375 L 560.34375 804.609375 L 558.6875 804.625 L 557.140625 804.515625 L 556 804.40625 L 554.75 804.25 L 553.390625 804 L 551.96875 803.703125 L 550.4375 803.3125 L 548.84375 802.84375 L 547.171875 802.265625 L 545.421875 801.59375 L 543.609375 800.796875 L 541.75 799.875 L 539.828125 798.8125 L 537.859375 797.625 L 535.84375 796.28125 L 533.8125 794.796875 L 531.734375 793.125 L 529.625 791.28125 L 527.5 789.28125 L 525.34375 787.078125 L 523.203125 784.671875 L 521.03125 782.0625 L 518.875 779.234375 L 516.703125 776.1875 L 514.5625 772.90625 L 513.5 771.171875 L 509.359375 764.390625 L 502 752.40625 L 495.5625 741.96875 L 489.890625 732.65625 L 485.984375 726.140625 L 483.53125 721.890625 L 481.140625 717.703125 L 478.796875 713.484375 L 476.5 709.203125 L 474.1875 704.78125 L 471.875 700.171875 L 469.515625 695.359375 L 468.296875 692.828125 L 467.515625 691.125 L 465.9375 687.6875 L 464.375 684.109375 L 462.78125 680.4375 L 460.4375 674.765625 L 457.328125 666.953125 L 454.28125 658.953125 L 451.265625 650.84375 L 448.328125 642.71875 L 445.484375 634.671875 L 441.390625 622.9375 L 436.359375 608.4375 L 433 598.890625 L 430.9375 593.265625 L 429.078125 588.359375 L 427.8125 585.296875 L 427.03125 583.46875 L 426.671875 582.6875 L 426.296875 581.921875 L 425.40625 580.1875 L 424.359375 578.328125 L 423.15625 576.3125 L 421.828125 574.1875 L 420.34375 571.96875 L 418.71875 569.640625 L 416.953125 567.1875 L 415.078125 564.6875 L 413.078125 562.09375 L 410.96875 559.453125 L 408.765625 556.78125 L 406.4375 554.046875 L 404.015625 551.28125 L 404.03125 551.265625 L 401.53125 548.53125 L 398.953125 545.78125 L 396.28125 543.015625 L 393.546875 540.25 L 390.75 537.546875 L 387.890625 534.875 L 384.984375 532.265625 L 382.015625 529.6875 L 379.015625 527.203125 L 375.984375 524.796875 L 372.921875 522.5 L 369.828125 520.296875 L 366.703125 518.203125 L 363.609375 516.265625 L 360.453125 514.421875 L 357.328125 512.75 L 354.984375 511.59375 L 353.4375 510.890625 L 351.875 510.203125 L 350.359375 509.59375 L 349.578125 509.296875 L 349.0625 509.109375 L 347.953125 508.734375 L 346.90625 508.421875 L 345.75 508.125 L 344.046875 507.734375 L 341.59375 507.3125 L 339.09375 507 L 336.546875 506.796875 L 336.546875 506.8125 L 333.875 506.703125 L 331.203125 506.6875 L 328.46875 506.75 L 325.65625 506.890625 L 325.65625 506.875 L 322.890625 507.078125 L 320.078125 507.34375 L 317.25 507.65625 L 314.46875 508 L 310.296875 508.59375 L 304.875 509.46875 L 299.71875 510.375 L 294.875 511.234375 L 290.46875 512.015625 L 286.546875 512.625 L 284 512.9375 L 282.46875 513.078125 L 281.109375 513.15625 L 279.890625 513.125 L 278.84375 513 L 278.15625 512.796875 L 277.765625 512.625 L 277.53125 512.5 L 277.28125 512.328125 L 276.828125 511.9375 L 276.359375 511.421875 L 275.875 510.8125 L 275.109375 509.734375 L 273.953125 507.921875 L 272.65625 505.734375 L 271.25 503.203125 L 269.71875 500.34375 L 268.09375 497.203125 L 265.515625 492.03125 L 261.828125 484.375 L 257.9375 476.140625 L 254 467.546875 L 250.09375 458.890625 L 246.3125 450.421875 L 241.0625 438.515625 L 233.234375 420.421875 L 231.640625 416.71875 L 333.359375 369.296875 L 377.046875 348.921875 L 478.71875 301.515625 L 480.546875 305.09375 L 489.359375 322.703125 L 495.109375 334.375 L 499.171875 342.734375 L 503.296875 351.296875 L 507.34375 359.828125 L 511.171875 368.09375 L 514.65625 375.84375 L 516.9375 381.140625 L 518.328125 384.421875 L 519.53125 387.421875 L 520.5625 390.125 L 521.40625 392.53125 L 522.046875 394.578125 L 522.375 395.875 L 522.53125 396.640625 L 522.609375 397.3125 L 522.640625 397.921875 L 522.609375 398.21875 L 522.5625 398.46875 L 522.4375 398.890625 L 522.140625 399.53125 L 521.5625 400.4375 L 520.8125 401.375 L 519.890625 402.375 L 518.796875 403.453125 L 516.921875 405.21875 L 513.921875 407.828125 L 510.484375 410.703125 L 506.703125 413.84375 L 502.6875 417.234375 L 498.578125 420.796875 L 495.4375 423.625 L 493.359375 425.546875 L 493.34375 425.53125 L 491.3125 427.484375 L 489.3125 429.46875 L 489.328125 429.46875 L 487.359375 431.5 L 485.46875 433.53125 Z"/>
        <path id="Path-copy" fill="#ff0000" fill-rule="evenodd" stroke="#000000" stroke-width="1.956619" stroke-linecap="round" stroke-linejoin="round" d="M 417.828125 201.5 L 417.53125 201.75 L 417.09375 202.140625 L 416.484375 202.796875 L 415.625 203.875 L 414.640625 205.234375 L 414.625 205.234375 L 413.671875 206.6875 L 412.703125 208.265625 L 411.75 209.90625 L 410.390625 212.359375 L 408.78125 215.390625 L 407.09375 218.765625 L 406.875 219.265625 L 406.65625 219.734375 L 405.109375 222.953125 L 403.9375 225.15625 L 403.03125 226.75 L 402.03125 228.421875 L 400.9375 230.125 L 399.765625 231.828125 L 398.484375 233.484375 L 397.15625 235.078125 L 396.09375 236.171875 L 395.375 236.875 L 394.640625 237.546875 L 393.875 238.15625 L 393.09375 238.71875 L 392.328125 239.203125 L 391.90625 239.453125 L 391.125 239.875 L 389.53125 240.671875 L 387.875 241.40625 L 386.203125 242.109375 L 383.703125 243.078125 L 380.484375 244.171875 L 377.578125 245.0625 L 375.109375 245.75 L 372.5625 246.375 L 372.5 246.390625 L 372.109375 246.8125 L 368.203125 251.109375 L 364.703125 255.03125 L 360.828125 259.453125 L 357.03125 263.921875 L 354.515625 267.03125 L 353.046875 268.9375 L 351.84375 270.609375 L 350.953125 271.984375 L 350.34375 273.09375 L 349.46875 274.53125 L 348.328125 276.203125 L 346.984375 278.0625 L 344.734375 281.078125 L 341.375 285.375 L 338.015625 289.5625 L 334.9375 293.296875 L 331.5625 297.34375 L 330.921875 298.109375 L 330.703125 298.21875 L 330.21875 298.5 L 329.375 298.84375 L 328.65625 299.0625 L 327.78125 299.28125 L 326.75 299.40625 L 325.59375 299.5 L 324.28125 299.5 L 322.796875 299.375 L 321.140625 299.140625 L 319.328125 298.75 L 317.34375 298.203125 L 315.171875 297.46875 L 312.828125 296.53125 L 311.578125 295.953125 L 310.953125 295.671875 L 309.78125 295.203125 L 308.578125 294.78125 L 307.40625 294.40625 L 306.171875 294.078125 L 306.171875 294.0625 L 305.015625 293.8125 L 303.890625 293.59375 L 302.71875 293.421875 L 301.578125 293.28125 L 300.515625 293.203125 L 300.515625 293.21875 L 298.875 293.140625 L 296.8125 293.171875 L 296.8125 293.15625 L 294.921875 293.28125 L 293.125 293.5 L 291.453125 293.78125 L 290.0625 294.0625 L 290.0625 294.078125 L 288.78125 294.40625 L 287.265625 294.84375 L 286.234375 295.21875 L 286.125 295.265625 L 259.421875 309.859375 L 258.78125 310.015625 L 255.328125 310.53125 L 252.890625 310.828125 L 251.078125 310.984375 L 249.15625 311.125 L 247.125 311.234375 L 245.03125 311.265625 L 242.90625 311.21875 L 240.78125 311.0625 L 238.703125 310.828125 L 237.15625 310.546875 L 236.171875 310.328125 L 235.203125 310.078125 L 234.265625 309.78125 L 233.8125 309.625 L 232.953125 309.3125 L 231.375 308.828125 L 229.8125 308.4375 L 228.234375 308.140625 L 228.234375 308.125 L 226.765625 307.9375 L 225.390625 307.828125 L 225.390625 307.84375 L 223.96875 307.828125 L 222.5625 307.890625 L 222.5625 307.875 L 221.25 308.015625 L 219.859375 308.21875 L 218.578125 308.453125 L 218.578125 308.46875 L 217.21875 308.796875 L 215.921875 309.15625 L 214.578125 309.5625 L 212.609375 310.21875 L 212.609375 310.234375 L 211.25 310.734375 L 210.90625 310.875 L 210.109375 311.203125 L 208.96875 311.78125 L 207.328125 312.71875 L 205.6875 313.796875 L 203.984375 315.015625 L 202.296875 316.3125 L 200.609375 317.6875 L 198.96875 319.0625 L 196.703125 321.078125 L 194.109375 323.515625 L 194.109375 323.5 L 191.421875 326.171875 L 190.25 327.390625 L 189.3125 326.15625 L 187.5 323.703125 L 185.703125 321.1875 L 183.515625 318.046875 L 181.03125 314.3125 L 178.390625 310.125 L 176.34375 306.71875 L 174.984375 304.359375 L 173.609375 301.9375 L 172.28125 299.453125 L 171 296.921875 L 169.75 294.375 L 168.578125 291.78125 L 167.46875 289.203125 L 166.46875 286.625 L 165.5625 284.046875 L 164.765625 281.484375 L 164.109375 278.953125 L 163.578125 276.46875 L 163.3125 274.65625 L 163.171875 273.453125 L 163.0625 272.265625 L 163.015625 271.09375 L 163.015625 269.96875 L 163.078125 268.828125 L 163.171875 267.734375 L 163.3125 266.65625 L 163.53125 265.578125 L 163.796875 264.546875 L 163.96875 264.046875 L 164.125 263.53125 L 164.5625 262.484375 L 165.109375 261.4375 L 165.734375 260.421875 L 166.4375 259.359375 L 167.25 258.296875 L 168.140625 257.234375 L 169.09375 256.171875 L 170.140625 255.109375 L 171.265625 254.015625 L 172.453125 252.921875 L 173.734375 251.828125 L 175.765625 250.1875 L 178.71875 247.9375 L 181.921875 245.6875 L 185.359375 243.40625 L 189.03125 241.125 L 192.890625 238.796875 L 196.9375 236.484375 L 201.15625 234.140625 L 205.5 231.796875 L 210 229.453125 L 214.609375 227.09375 L 219.296875 224.765625 L 226.5 221.265625 L 236.25 216.625 L 246.078125 212.078125 L 260.65625 205.4375 L 274.484375 199.15625 L 283.140625 195.1875 L 287.203125 193.28125 L 288.984375 192.4375 L 292.609375 190.65625 L 296.34375 188.765625 L 300.1875 186.765625 L 306.078125 183.625 L 314.15625 179.21875 L 322.40625 174.6875 L 330.765625 170.125 L 337.046875 166.765625 L 341.234375 164.5625 L 345.390625 162.421875 L 349.53125 160.359375 L 353.640625 158.359375 L 357.6875 156.484375 L 361.6875 154.71875 L 365.625 153.078125 L 369.484375 151.578125 L 373.265625 150.234375 L 376.9375 149.0625 L 379.640625 148.296875 L 381.390625 147.859375 L 383.140625 147.46875 L 384.859375 147.109375 L 386.53125 146.828125 L 388.171875 146.59375 L 389.796875 146.421875 L 391.390625 146.296875 L 392.921875 146.25 L 394.453125 146.25 L 395.921875 146.34375 L 397.375 146.484375 L 398.78125 146.703125 L 400.140625 147 L 401.453125 147.359375 L 402.75 147.8125 L 403.984375 148.328125 L 405.15625 148.9375 L 405.75 149.296875 L 406.21875 149.59375 L 407.171875 150.359375 L 408.125 151.296875 L 409.078125 152.40625 L 410.03125 153.65625 L 411 155.03125 L 411.984375 156.515625 L 412.96875 158.140625 L 413.9375 159.84375 L 414.9375 161.625 L 416.40625 164.453125 L 418.34375 168.359375 L 420.1875 172.375 L 421.953125 176.390625 L 423.625 180.28125 L 425.828125 185.6875 L 428.96875 193.8125 L 429.71875 195.890625 L 428.109375 196.6875 L 423.390625 198.9375 L 419.828125 200.578125 L 418.25 201.265625 L 418.171875 201.296875 Z"/>
    </g>
    <g id="Paintbrush-copy-2">
        <path id="path4" fill="none" stroke="#000000" stroke-width="9.783096" stroke-linecap="round" stroke-linejoin="round" d="M 660.40625 512.671875 L 658 513.078125 L 656.4375 513.421875 L 655.609375 513.640625 L 655.609375 513.65625 L 654.484375 513.984375 L 653.5625 514.296875 L 653.21875 514.421875 L 652.53125 514.6875 L 650.953125 515.328125 L 649.453125 515.96875 L 648.046875 516.625 L 645.90625 517.671875 L 642.75 519.359375 L 639.875 521.046875 L 636.71875 523.015625 L 636.71875 523 L 633.84375 524.953125 L 630.734375 527.171875 L 627.828125 529.359375 L 624.78125 531.765625 L 621.828125 534.203125 L 619.03125 536.625 L 616.109375 539.265625 L 613.28125 541.890625 L 610.609375 544.5 L 607.875 547.25 L 605.25 549.96875 L 602.71875 552.6875 L 600.25 555.40625 L 597.875 558.109375 L 595.65625 560.71875 L 593.4375 563.421875 L 591.34375 566.03125 L 589.40625 568.546875 L 587.609375 570.96875 L 585.84375 573.40625 L 584.25 575.6875 L 582.875 577.75 L 581.515625 579.90625 L 580.375 581.8125 L 579.375 583.59375 L 578.640625 584.984375 L 577.953125 586.484375 L 577.171875 588.3125 L 575.921875 591.375 L 575.90625 591.375 L 574.078125 596.15625 L 572.0625 601.71875 L 568.703125 611.203125 L 563.703125 625.671875 L 559.609375 637.421875 L 556.75 645.5 L 553.796875 653.65625 L 550.78125 661.796875 L 547.703125 669.859375 L 544.578125 677.71875 L 542.203125 683.421875 L 540.609375 687.140625 L 539.03125 690.75 L 537.421875 694.265625 L 536.609375 695.984375 L 535.40625 698.515625 L 533.015625 703.390625 L 530.6875 708.03125 L 528.359375 712.484375 L 526.03125 716.828125 L 523.671875 721.078125 L 521.25 725.3125 L 518.765625 729.59375 L 514.859375 736.140625 L 509.15625 745.5 L 502.734375 755.921875 L 495.375 767.90625 L 491.234375 774.703125 L 490.125 776.484375 L 487.921875 779.859375 L 485.671875 783.03125 L 483.421875 785.96875 L 481.15625 788.6875 L 478.90625 791.21875 L 476.640625 793.53125 L 474.40625 795.671875 L 472.15625 797.609375 L 469.953125 799.375 L 467.765625 800.96875 L 465.625 802.390625 L 463.53125 803.671875 L 461.453125 804.8125 L 459.4375 805.8125 L 457.46875 806.671875 L 455.5625 807.40625 L 453.75 808.03125 L 451.984375 808.5625 L 450.3125 808.984375 L 448.75 809.3125 L 447.234375 809.59375 L 445.828125 809.765625 L 444.546875 809.890625 L 442.796875 810 L 440.890625 809.984375 L 440.09375 809.921875 L 438.65625 811.15625 L 436.828125 809.515625 L 434.484375 809.15625 L 434.484375 807.3125 L 433.90625 806.734375 L 432.65625 805.265625 L 431.640625 803.875 L 430.890625 802.8125 L 430.125 801.609375 L 429.375 800.3125 L 428.59375 798.859375 L 427.859375 797.3125 L 427.140625 795.640625 L 426.421875 793.828125 L 425.78125 791.90625 L 425.1875 789.84375 L 424.640625 787.640625 L 424.203125 785.328125 L 423.828125 782.90625 L 423.53125 780.34375 L 423.34375 777.65625 L 423.28125 774.796875 L 423.34375 771.84375 L 423.53125 768.765625 L 423.859375 765.546875 L 424.328125 762.203125 L 424.96875 758.703125 L 425.78125 755.09375 L 426.75 751.359375 L 427.90625 747.484375 L 428.578125 745.46875 L 431.125 737.921875 L 435.5625 724.609375 L 439.421875 712.96875 L 442.921875 702.578125 L 445.4375 695.390625 L 447.109375 690.75 L 448.796875 686.1875 L 450.53125 681.625 L 452.375 677.046875 L 454.296875 672.40625 L 456.34375 667.640625 L 458.546875 662.671875 L 459.734375 660.09375 L 460.5 658.40625 L 462.171875 654.921875 L 463.90625 651.375 L 465.71875 647.765625 L 468.578125 642.265625 L 472.59375 634.828125 L 476.78125 627.28125 L 481.09375 619.75 L 485.4375 612.25 L 489.78125 604.875 L 496.15625 594.1875 L 504.03125 581.03125 L 509.171875 572.328125 L 512.09375 567.25 L 512.078125 567.25 L 514.640625 562.65625 L 516.171875 559.765625 L 516.96875 558.15625 L 517.359375 557.34375 L 517.65625 556.671875 L 518.3125 555.109375 L 519.078125 553.09375 L 519.796875 551.015625 L 520.5 548.78125 L 521.234375 546.265625 L 522 543.5 L 522.703125 540.703125 L 523.40625 537.703125 L 524.09375 534.5625 L 524.75 531.3125 L 525.375 527.953125 L 525.96875 524.5 L 526.5 521.015625 L 527 517.359375 L 526.984375 517.359375 L 527.46875 513.59375 L 527.84375 509.9375 L 528.1875 506.0625 L 528.46875 502.34375 L 528.453125 502.34375 L 528.65625 498.421875 L 528.796875 494.5625 L 528.859375 490.71875 L 528.828125 486.9375 L 528.71875 483.125 L 528.515625 479.375 L 528.234375 475.703125 L 527.84375 472.09375 L 527.34375 468.578125 L 526.75 465.09375 L 526.09375 461.96875 L 525.453125 459.40625 L 525.03125 457.828125 L 524.609375 456.421875 L 524.078125 454.796875 L 524.09375 454.796875 L 523.84375 454.078125 L 523.71875 453.734375 L 523.703125 453.734375 L 523.28125 452.65625 L 522.890625 451.75 L 522.4375 450.78125 L 521.796875 449.546875 L 520.6875 447.625 L 519.28125 445.484375 L 517.859375 443.484375 L 516.4375 441.640625 L 514.703125 439.546875 L 512.96875 437.578125 L 511.21875 435.6875 L 509.25 433.65625 L 507.296875 431.71875 L 505.375 429.859375 L 505.359375 429.875 L 503.28125 427.953125 L 500.203125 425.1875 L 496.171875 421.6875 L 492.15625 418.296875 L 488.390625 415.171875 L 484.9375 412.265625 L 481.84375 409.59375 L 479.875 407.75 L 478.6875 406.578125 L 477.59375 405.390625 L 476.625 404.1875 L 475.78125 402.859375 L 475.328125 401.8125 L 474.96875 400.796875 L 474.875 400.015625 L 474.84375 399.46875 L 474.875 398.46875 L 475 397.46875 L 475.1875 396.484375 L 475.5625 394.984375 L 476.265625 392.765625 L 477.140625 390.265625 L 478.21875 387.46875 L 479.4375 384.40625 L 480.828125 381.09375 L 483.15625 375.75 L 486.65625 367.9375 L 490.5 359.640625 L 494.546875 351.078125 L 498.6875 342.5 L 502.75 334.140625 L 508.515625 322.4375 L 517.359375 304.796875 L 518.75 302.046875 L 561 211.40625 L 561.703125 208.53125 L 562.453125 205.578125 L 563.46875 201.921875 L 564.6875 197.6875 L 566.171875 193 L 567.4375 189.28125 L 568.359375 186.71875 L 569.328125 184.109375 L 570.375 181.5 L 571.453125 178.859375 L 572.609375 176.21875 L 573.828125 173.609375 L 575.109375 171.03125 L 576.453125 168.5 L 577.859375 166.046875 L 579.328125 163.671875 L 580.875 161.390625 L 582.5 159.203125 L 584.203125 157.171875 L 585.578125 155.703125 L 586.515625 154.78125 L 587.4375 153.9375 L 588.421875 153.09375 L 589.4375 152.3125 L 590.484375 151.5625 L 591.578125 150.875 L 592.640625 150.28125 L 592.796875 150.203125 L 593 150.046875 L 594.25 149.234375 L 595.59375 148.546875 L 597.09375 147.953125 L 598.703125 147.578125 L 599.953125 147.4375 L 600.9375 147.40625 L 601.875 147.453125 L 602.765625 147.578125 L 603.6875 147.765625 L 604.09375 147.890625 L 605.46875 147.9375 L 606.90625 148.046875 L 608.421875 148.1875 L 610.75 148.5 L 613.9375 149.0625 L 617.265625 149.765625 L 620.75 150.625 L 624.359375 151.65625 L 628.0625 152.765625 L 631.90625 154.03125 L 635.859375 155.40625 L 639.875 156.90625 L 643.984375 158.46875 L 648.203125 160.140625 L 652.46875 161.890625 L 658.96875 164.640625 L 667.796875 168.515625 L 676.703125 172.546875 L 685.640625 176.71875 L 694.484375 180.890625 L 707.484375 187.125 L 719.765625 193 L 727.515625 196.65625 L 731.1875 198.375 L 732.875 199.140625 L 736.546875 200.765625 L 740.421875 202.421875 L 744.375 204.0625 L 750.46875 206.53125 L 750.46875 206.515625 L 759.046875 209.875 L 767.8125 213.28125 L 776.71875 216.75 L 783.375 219.421875 L 787.765625 221.21875 L 792.125 223.046875 L 796.40625 224.921875 L 800.609375 226.796875 L 804.703125 228.734375 L 808.71875 230.6875 L 812.578125 232.6875 L 816.296875 234.734375 L 819.859375 236.828125 L 823.234375 238.953125 L 825.65625 240.609375 L 827.203125 241.71875 L 828.703125 242.859375 L 830.171875 244.03125 L 831.53125 245.1875 L 832.84375 246.375 L 834.140625 247.59375 L 835.34375 248.859375 L 836.484375 250.109375 L 837.5625 251.40625 L 838.5625 252.765625 L 839.46875 254.09375 L 840.328125 255.5 L 841.09375 256.953125 L 841.765625 258.40625 L 842.328125 259.921875 L 842.8125 261.453125 L 843.171875 263.046875 L 843.296875 263.90625 L 843.40625 264.734375 L 843.421875 266.34375 L 843.296875 268 L 843.03125 269.71875 L 842.640625 271.453125 L 842.171875 273.234375 L 841.609375 275.078125 L 840.984375 276.953125 L 840.28125 278.890625 L 839.515625 280.890625 L 838.265625 283.890625 L 836.46875 287.96875 L 834.546875 292.0625 L 832.59375 296.03125 L 830.65625 299.84375 L 827.90625 305.09375 L 823.65625 312.75 L 823.09375 313.734375 L 771.0625 425.296875 L 770.984375 425.25 L 763.921875 441.53125 L 758.65625 453.46875 L 754.875 461.953125 L 750.953125 470.640625 L 747 479.25 L 743.109375 487.53125 L 739.390625 495.21875 L 736.78125 500.453125 L 735.125 503.640625 L 733.578125 506.53125 L 732.140625 509.140625 L 730.765625 511.46875 L 729.5 513.421875 L 728.625 514.625 L 728.015625 515.421875 L 727.296875 516.1875 L 726.484375 516.9375 L 725.9375 517.28125 L 725.46875 517.578125 L 724.515625 517.96875 L 723.296875 518.3125 L 721.78125 518.5 L 720.25 518.53125 L 718.65625 518.453125 L 717 518.3125 L 714.296875 517.984375 L 710.265625 517.34375 L 705.8125 516.546875 L 700.96875 515.6875 L 695.875 514.796875 L 690.46875 513.921875 L 686.4375 513.359375 L 686.4375 513.375 L 683.625 513.015625 L 683.625 513 L 680.96875 512.71875 L 678.140625 512.453125 L 675.515625 512.25 L 675.515625 512.265625 L 672.71875 512.125 L 670.15625 512.0625 L 667.671875 512.09375 L 664.984375 512.203125 L 662.765625 512.375 Z"/>
        <path id="path5" fill="#e5bb6f" fill-rule="evenodd" stroke="none" d="M 523.110474 304.277832 L 589.676208 161.527283 C 589.676208 161.527283 595.569702 149.704102 603.444336 152.835205 C 609.24469 155.141541 670.753113 181.100525 702.949097 194.697998 L 718.11615 200.910339 C 718.11615 200.910339 720.078735 201.914856 720.2948 202.02533 C 720.518311 202.119812 722.549377 202.9776 722.549377 202.9776 L 759.375183 221.229187 L 758.901489 221.788391 C 790.382629 237.9104 828.669983 257.539429 833.086609 259.919189 C 840.546936 263.938904 835.278137 276.053345 835.278137 276.053345 L 768.712463 418.803955 L 641.92157 359.680359 L 638.374939 358.02655 L 523.110474 304.277832 Z"/>
        <path id="path6" fill="#755212" fill-rule="evenodd" stroke="#000000" stroke-width="1.956619" stroke-linecap="round" stroke-linejoin="round" d="M 653.390625 510.21875 L 652.3125 510.578125 L 651.0625 511.046875 L 651.0625 511.0625 L 649.5 511.703125 L 647.921875 512.375 L 646.390625 513.09375 L 644.015625 514.25 L 640.90625 515.90625 L 637.78125 517.734375 L 634.671875 519.671875 L 631.546875 521.78125 L 628.484375 523.96875 L 625.390625 526.296875 L 622.359375 528.6875 L 619.34375 531.171875 L 616.390625 533.734375 L 613.484375 536.359375 L 610.640625 539.015625 L 607.828125 541.75 L 607.828125 541.734375 L 605.09375 544.484375 L 602.4375 547.21875 L 602.453125 547.234375 L 599.859375 550.015625 L 597.34375 552.796875 L 594.9375 555.515625 L 594.953125 555.515625 L 592.625 558.25 L 590.40625 560.9375 L 588.28125 563.59375 L 586.3125 566.15625 L 584.421875 568.6875 L 582.671875 571.109375 L 581.03125 573.453125 L 579.546875 575.6875 L 578.203125 577.8125 L 577.015625 579.8125 L 575.96875 581.6875 L 575.953125 581.6875 L 575.09375 583.34375 L 574.359375 584.953125 L 573.578125 586.78125 L 572.296875 589.90625 L 572.28125 589.90625 L 570.421875 594.734375 L 570.4375 594.734375 L 568.390625 600.375 L 565.015625 609.90625 L 560 624.40625 L 555.90625 636.140625 L 553.0625 644.1875 L 550.125 652.296875 L 547.125 660.421875 L 544.046875 668.421875 L 540.953125 676.234375 L 538.609375 681.890625 L 537.03125 685.578125 L 535.453125 689.140625 L 533.875 692.609375 L 533.078125 694.296875 L 531.890625 696.8125 L 529.515625 701.65625 L 527.203125 706.234375 L 524.90625 710.65625 L 522.59375 714.953125 L 520.265625 719.15625 L 517.859375 723.359375 L 515.390625 727.609375 L 511.515625 734.109375 L 505.828125 743.4375 L 499.40625 753.859375 L 492.046875 765.84375 L 487.90625 772.640625 L 486.828125 774.390625 L 484.6875 777.65625 L 482.515625 780.703125 L 480.359375 783.53125 L 478.1875 786.140625 L 476.046875 788.546875 L 473.890625 790.75 L 471.765625 792.765625 L 469.65625 794.59375 L 467.578125 796.265625 L 465.53125 797.75 L 463.53125 799.09375 L 461.5625 800.28125 L 459.640625 801.34375 L 457.78125 802.265625 L 455.96875 803.0625 L 454.21875 803.734375 L 452.546875 804.3125 L 450.953125 804.78125 L 449.421875 805.171875 L 448 805.46875 L 446.640625 805.71875 L 445.390625 805.875 L 444.234375 805.984375 L 442.703125 806.09375 L 441.046875 806.078125 L 439.46875 805.953125 L 438.828125 805.859375 L 438.71875 805.953125 L 438.578125 805.828125 L 438.390625 805.796875 L 438.390625 805.65625 L 437.90625 805.21875 L 436.796875 804.09375 L 435.734375 802.84375 L 434.8125 801.59375 L 434.15625 800.65625 L 433.46875 799.578125 L 432.78125 798.40625 L 432.09375 797.09375 L 431.421875 795.6875 L 430.75 794.15625 L 430.109375 792.5 L 429.515625 790.734375 L 428.96875 788.828125 L 428.46875 786.796875 L 428.046875 784.65625 L 427.703125 782.390625 L 427.4375 780 L 427.25 777.46875 L 427.1875 774.796875 L 427.25 772 L 427.4375 769.078125 L 427.75 766.015625 L 428.1875 762.828125 L 428.8125 759.484375 L 429.578125 756.015625 L 430.53125 752.40625 L 431.640625 748.65625 L 432.296875 746.71875 L 434.84375 739.171875 L 439.28125 725.84375 L 443.140625 714.203125 L 446.625 703.859375 L 449.125 696.71875 L 450.78125 692.09375 L 452.453125 687.5625 L 454.1875 683.046875 L 456 678.53125 L 457.890625 673.9375 L 459.921875 669.203125 L 462.109375 664.28125 L 463.28125 661.75 L 464.046875 660.0625 L 465.6875 656.625 L 467.40625 653.109375 L 469.203125 649.5625 L 472.046875 644.109375 L 476.03125 636.703125 L 480.1875 629.21875 L 484.484375 621.703125 L 488.8125 614.234375 L 493.140625 606.875 L 499.515625 596.1875 L 507.390625 583.03125 L 512.53125 574.3125 L 515.515625 569.125 L 518.046875 564.5625 L 519.625 561.609375 L 520.5 559.84375 L 520.890625 559.03125 L 521.21875 558.28125 L 521.984375 556.46875 L 522.75 554.484375 L 523.5 552.296875 L 523.484375 552.296875 L 524.25 549.875 L 525.015625 547.296875 L 525.78125 544.546875 L 526.5 541.65625 L 527.21875 538.59375 L 527.921875 535.390625 L 528.59375 532.09375 L 529.234375 528.6875 L 529.21875 528.6875 L 529.8125 525.15625 L 530.375 521.515625 L 530.875 517.84375 L 531.34375 514.078125 L 531.75 510.265625 L 532.09375 506.40625 L 532.375 502.546875 L 532.359375 502.546875 L 532.5625 498.625 L 532.703125 494.703125 L 532.765625 490.78125 L 532.734375 486.90625 L 532.625 483.015625 L 532.421875 479.171875 L 532.4375 479.171875 L 532.140625 475.40625 L 531.734375 471.671875 L 531.21875 468.03125 L 530.609375 464.4375 L 529.890625 461.015625 L 529.25 458.453125 L 529.265625 458.453125 L 528.828125 456.828125 L 528.8125 456.828125 L 528.328125 455.1875 L 527.796875 453.578125 L 527.53125 452.796875 L 527.34375 452.296875 L 527.359375 452.296875 L 526.9375 451.234375 L 526.484375 450.1875 L 526 449.171875 L 525.15625 447.546875 L 525.171875 447.546875 L 523.9375 445.421875 L 522.5625 443.328125 L 521.078125 441.25 L 519.4375 439.125 L 517.71875 437.046875 L 515.90625 434.984375 L 514.03125 432.96875 L 512.0625 430.9375 L 512.078125 430.9375 L 510.0625 428.9375 L 508.015625 426.984375 L 505.96875 425.078125 L 505.953125 425.09375 L 502.8125 422.28125 L 498.671875 418.6875 L 494.6875 415.3125 L 490.90625 412.171875 L 487.484375 409.296875 L 484.46875 406.6875 L 482.59375 404.921875 L 481.5 403.859375 L 480.5625 402.84375 L 479.8125 401.90625 L 479.25 401.015625 L 478.96875 400.375 L 478.8125 399.921875 L 478.78125 399.65625 L 478.75 399.375 L 478.78125 398.78125 L 478.859375 398.109375 L 479.015625 397.34375 L 479.34375 396.046875 L 479.984375 394 L 480.8125 391.609375 L 481.859375 388.890625 L 483.0625 385.90625 L 484.421875 382.640625 L 486.734375 377.328125 L 490.21875 369.5625 L 494.046875 361.3125 L 498.078125 352.78125 L 502.203125 344.203125 L 506.265625 335.875 L 512.015625 324.1875 L 520.84375 306.5625 L 522.671875 302.984375 L 624.34375 350.40625 L 668.03125 370.765625 L 769.734375 418.203125 L 768.171875 421.890625 L 760.34375 439.96875 L 755.09375 451.875 L 751.296875 460.34375 L 747.390625 469.015625 L 743.453125 477.59375 L 739.578125 485.828125 L 735.875 493.484375 L 733.296875 498.671875 L 731.671875 501.8125 L 730.140625 504.671875 L 728.734375 507.203125 L 727.4375 509.40625 L 726.28125 511.203125 L 725.5 512.28125 L 725.03125 512.890625 L 724.546875 513.40625 L 724.09375 513.8125 L 723.859375 513.96875 L 723.65625 514.09375 L 723.234375 514.265625 L 722.53125 514.46875 L 721.5 514.59375 L 720.28125 514.625 L 718.921875 514.546875 L 717.40625 514.421875 L 714.84375 514.109375 L 710.921875 513.484375 L 706.5 512.703125 L 701.65625 511.84375 L 696.484375 510.9375 L 691.078125 510.0625 L 686.921875 509.484375 L 684.109375 509.125 L 681.3125 508.8125 L 678.5 508.546875 L 675.71875 508.34375 L 675.71875 508.359375 L 672.921875 508.21875 L 670.203125 508.15625 L 667.515625 508.1875 L 664.828125 508.296875 L 664.828125 508.28125 L 662.296875 508.484375 L 659.796875 508.796875 L 657.34375 509.21875 L 657.34375 509.203125 L 655.59375 509.59375 L 654.515625 509.890625 Z"/>
        <path id="path7" fill="none" stroke="#000000" stroke-width="1.956619" stroke-linecap="round" stroke-linejoin="round" d="M 579.523926 206.447632 L 538.178772 295.11261 M 592.823669 212.649414 L 551.478516 301.314392 M 644.722534 237.929749 L 603.37738 326.594666 M 653.942749 238.990845 L 612.597595 327.655823 M 668.781555 253.466431 L 629.09021 338.584778 M 717.074097 274.906128 L 675.728943 363.571106 M 726.767517 277.267334 L 685.422363 365.932312 M 760.046753 293.865173 L 718.701599 382.530151 M 796.040894 297.696167 L 750.97467 394.341003 M 809.101685 295.15094 L 760.314392 399.775635"/>
        <path id="path8" fill="#ffffff" fill-rule="evenodd" stroke="#000000" stroke-width="1.956619" stroke-linecap="round" stroke-linejoin="round" d="M 790.78125 309.25 L 787.078125 310.140625 L 786.578125 310.265625 L 786.046875 310.421875 L 782.578125 311.3125 L 780.140625 311.8125 L 778.359375 312.15625 L 776.421875 312.453125 L 774.421875 312.71875 L 772.34375 312.890625 L 770.25 313.015625 L 768.1875 313 L 766.671875 312.890625 L 765.65625 312.796875 L 764.6875 312.65625 L 763.734375 312.46875 L 762.796875 312.234375 L 761.890625 311.953125 L 761.46875 311.78125 L 760.640625 311.46875 L 759 310.75 L 757.375 309.96875 L 755.75 309.140625 L 753.421875 307.828125 L 750.515625 306.078125 L 747.953125 304.40625 L 745.84375 302.96875 L 743.71875 301.421875 L 743.6875 301.390625 L 743.09375 301.359375 L 737.3125 301.125 L 732.046875 300.96875 L 726.15625 300.84375 L 720.328125 300.8125 L 716.296875 300.890625 L 713.890625 300.984375 L 713.890625 300.96875 L 711.890625 301.125 L 710.203125 301.328125 L 709.65625 301.4375 L 708.984375 301.59375 L 707.3125 301.828125 L 705.3125 302.03125 L 703.015625 302.203125 L 699.25 302.421875 L 693.8125 302.609375 L 688.421875 302.71875 L 683.609375 302.78125 L 678.328125 302.796875 L 677.515625 302.78125 L 677.296875 302.78125 L 676.546875 302.484375 L 675.765625 302.078125 L 675.125 301.65625 L 674.421875 301.109375 L 673.65625 300.4375 L 672.84375 299.59375 L 672 298.578125 L 671.140625 297.375 L 670.265625 295.953125 L 669.390625 294.3125 L 668.53125 292.421875 L 667.703125 290.296875 L 666.90625 287.90625 L 666.546875 286.578125 L 666.375 285.953125 L 666.359375 285.953125 L 665.953125 284.6875 L 665.515625 283.5 L 665.03125 282.34375 L 664.53125 281.265625 L 663.96875 280.171875 L 663.984375 280.171875 L 663.390625 279.15625 L 662.78125 278.140625 L 662.171875 277.21875 L 661.546875 276.34375 L 660.53125 275.015625 L 659.234375 273.515625 L 657.84375 272.078125 L 656.53125 270.84375 L 655.28125 269.78125 L 655.296875 269.765625 L 654.15625 268.875 L 654.140625 268.890625 L 653.0625 268.109375 L 651.765625 267.234375 L 650.75 266.640625 L 650.71875 266.625 L 622.375 255.578125 L 621.828125 255.15625 L 619.203125 252.84375 L 617.4375 251.171875 L 616.140625 249.921875 L 614.796875 248.515625 L 613.40625 247.03125 L 612.046875 245.4375 L 610.71875 243.78125 L 609.46875 242.0625 L 608.3125 240.3125 L 607.53125 238.953125 L 607.0625 238.0625 L 606.640625 237.140625 L 606.265625 236.265625 L 606.078125 235.796875 L 605.765625 234.921875 L 605.109375 233.359375 L 604.421875 231.96875 L 603.640625 230.578125 L 602.84375 229.328125 L 602 228.15625 L 601.125 227.078125 L 600.21875 226.09375 L 599.203125 225.109375 L 598.1875 224.203125 L 597.15625 223.359375 L 596.09375 222.5625 L 596.078125 222.578125 L 594.921875 221.78125 L 593.765625 221.03125 L 591.96875 219.921875 L 590.734375 219.21875 L 590.421875 219.046875 L 589.65625 218.671875 L 588.5 218.15625 L 588.5 218.171875 L 586.6875 217.5 L 584.8125 216.9375 L 582.75 216.40625 L 580.671875 215.9375 L 578.578125 215.515625 L 578.578125 215.53125 L 576.46875 215.171875 L 573.46875 214.71875 L 569.9375 214.296875 L 566.15625 213.953125 L 564.46875 213.8125 L 564.828125 212.3125 L 565.53125 209.359375 L 566.296875 206.375 L 567.3125 202.671875 L 568.578125 198.390625 L 570.078125 193.65625 L 571.375 189.90625 L 572.296875 187.34375 L 573.296875 184.75 L 574.328125 182.140625 L 575.4375 179.515625 L 576.59375 176.921875 L 577.8125 174.359375 L 579.09375 171.859375 L 580.4375 169.40625 L 581.8125 167.0625 L 583.265625 164.8125 L 584.78125 162.6875 L 586.34375 160.6875 L 587.5625 159.3125 L 588.375 158.421875 L 589.234375 157.578125 L 590.09375 156.8125 L 590.96875 156.0625 L 591.859375 155.375 L 592.78125 154.75 L 593.703125 154.171875 L 594.640625 153.640625 L 595.609375 153.1875 L 596.125 152.984375 L 596.625 152.796875 L 597.6875 152.46875 L 598.828125 152.203125 L 600.03125 152 L 601.296875 151.890625 L 602.609375 151.8125 L 604 151.796875 L 605.4375 151.859375 L 606.9375 151.984375 L 608.484375 152.140625 L 610.078125 152.359375 L 611.75 152.625 L 614.3125 153.125 L 617.921875 153.9375 L 621.703125 154.953125 L 625.65625 156.125 L 629.78125 157.453125 L 634.03125 158.921875 L 638.40625 160.515625 L 642.90625 162.25 L 647.5 164.078125 L 652.203125 166.015625 L 656.953125 168.03125 L 661.78125 170.140625 L 669.078125 173.375 L 678.890625 177.875 L 688.6875 182.484375 L 703.15625 189.375 L 716.859375 195.953125 L 725.46875 200.03125 L 729.515625 201.90625 L 731.296875 202.71875 L 735.015625 204.359375 L 738.890625 206.015625 L 742.890625 207.671875 L 742.890625 207.6875 L 749.046875 210.171875 L 757.625 213.53125 L 766.40625 216.9375 L 775.28125 220.390625 L 781.890625 223.046875 L 786.25 224.828125 L 790.578125 226.640625 L 794.8125 228.5 L 798.96875 230.359375 L 803.015625 232.265625 L 806.953125 234.1875 L 810.734375 236.140625 L 814.359375 238.140625 L 817.828125 240.171875 L 821.078125 242.234375 L 823.40625 243.8125 L 824.875 244.875 L 826.296875 245.953125 L 827.671875 247.046875 L 828.96875 248.140625 L 830.203125 249.25 L 831.375 250.375 L 832.484375 251.515625 L 833.515625 252.671875 L 834.484375 253.828125 L 835.375 255.03125 L 836.1875 256.21875 L 836.921875 257.4375 L 837.578125 258.671875 L 838.15625 259.921875 L 838.625 261.1875 L 839.03125 262.46875 L 839.328125 263.765625 L 839.421875 264.4375 L 839.5 265.015625 L 839.515625 266.21875 L 839.40625 267.546875 L 839.1875 269 L 838.84375 270.53125 L 838.40625 272.15625 L 837.890625 273.875 L 837.28125 275.671875 L 836.625 277.515625 L 835.875 279.421875 L 834.671875 282.359375 L 832.90625 286.34375 L 831.015625 290.359375 L 829.09375 294.28125 L 827.1875 298.03125 L 824.453125 303.234375 L 820.25 310.828125 L 819.15625 312.765625 L 817.46875 312.03125 L 812.75 309.875 L 809.203125 308.1875 L 807.71875 307.453125 L 807.53125 307.375 L 807.171875 307.25 L 806.796875 307.171875 L 806.265625 307.109375 L 805.40625 307.046875 L 805.40625 307.0625 L 803.90625 307.09375 L 803.90625 307.078125 L 802.328125 307.203125 L 800.578125 307.40625 L 798.71875 307.6875 L 796.828125 308 L 794.109375 308.53125 Z"/>
    </g>
</svg>
