<?xml version="1.0" encoding="UTF-8"?>
<!-- Generated by Pixelmator Pro 3.5.8 -->
<svg width="1000" height="1000" viewBox="0 0 1000 1000" xmlns="http://www.w3.org/2000/svg">
    <path id="Rectangle" fill="#808080" fill-rule="evenodd" stroke="none" d="M 0 1000 L 1000 1000 L 1000 0 L 0 0 Z"/>
    <g id="Group">
        <path id="Rounded-Rectangle" fill="#e6e6e6" fill-rule="evenodd" stroke="#000000" stroke-width="10.421215" stroke-linecap="round" stroke-linejoin="round" d="M 913.4375 42.90625 L 915.796875 43.15625 L 918.125 43.515625 L 920.40625 43.984375 L 922.640625 44.546875 L 924.875 45.234375 L 927.03125 46.03125 L 929.125 46.921875 L 931.1875 47.90625 L 933.1875 49 L 935.109375 50.171875 L 936.96875 51.421875 L 938.78125 52.78125 L 940.515625 54.21875 L 942.203125 55.734375 L 943.78125 57.328125 L 945.28125 58.96875 L 946.71875 60.71875 L 948.078125 62.515625 L 949.34375 64.375 L 950.53125 66.328125 L 951.59375 68.34375 L 952.578125 70.359375 L 953.46875 72.46875 L 954.265625 74.640625 L 954.953125 76.84375 L 955.53125 79.109375 L 955.984375 81.375 L 956.359375 83.703125 L 956.59375 86.078125 L 956.703125 88.421875 L 956.71875 89.640625 L 956.71875 909.859375 L 956.703125 911.078125 L 956.59375 913.421875 L 956.359375 915.796875 L 955.984375 918.125 L 955.53125 920.40625 L 954.953125 922.65625 L 954.265625 924.875 L 953.46875 927.03125 L 952.578125 929.125 L 951.59375 931.171875 L 950.515625 933.171875 L 949.34375 935.125 L 948.078125 936.984375 L 946.71875 938.78125 L 945.28125 940.515625 L 943.78125 942.1875 L 942.1875 943.78125 L 940.515625 945.28125 L 938.78125 946.71875 L 936.984375 948.078125 L 935.125 949.34375 L 933.171875 950.515625 L 931.171875 951.59375 L 929.125 952.578125 L 927.03125 953.46875 L 924.875 954.265625 L 922.65625 954.953125 L 920.40625 955.53125 L 918.125 955.984375 L 915.796875 956.359375 L 913.421875 956.59375 L 911.078125 956.703125 L 909.859375 956.71875 L 89.640625 956.71875 L 88.421875 956.703125 L 86.078125 956.59375 L 83.703125 956.359375 L 81.375 955.984375 L 79.109375 955.53125 L 76.84375 954.953125 L 74.640625 954.265625 L 72.46875 953.46875 L 70.359375 952.578125 L 68.34375 951.59375 L 66.328125 950.53125 L 64.375 949.34375 L 62.515625 948.078125 L 60.71875 946.71875 L 58.96875 945.28125 L 57.328125 943.78125 L 55.734375 942.203125 L 54.21875 940.515625 L 52.78125 938.78125 L 51.421875 936.96875 L 50.171875 935.109375 L 49 933.1875 L 47.90625 931.1875 L 46.921875 929.125 L 46.03125 927.03125 L 45.234375 924.875 L 44.546875 922.640625 L 43.984375 920.40625 L 43.515625 918.125 L 43.15625 915.796875 L 42.90625 913.4375 L 42.796875 911.046875 L 42.796875 88.453125 L 42.90625 86.0625 L 43.15625 83.703125 L 43.515625 81.375 L 43.984375 79.109375 L 44.546875 76.859375 L 45.234375 74.640625 L 46.03125 72.46875 L 46.921875 70.359375 L 47.90625 68.328125 L 49 66.328125 L 50.171875 64.390625 L 51.421875 62.53125 L 52.78125 60.71875 L 54.21875 58.96875 L 55.734375 57.3125 L 57.3125 55.734375 L 58.96875 54.21875 L 60.71875 52.78125 L 62.53125 51.421875 L 64.390625 50.171875 L 66.328125 49 L 68.328125 47.90625 L 70.359375 46.921875 L 72.46875 46.03125 L 74.640625 45.234375 L 76.859375 44.546875 L 79.109375 43.984375 L 81.375 43.515625 L 83.703125 43.15625 L 86.0625 42.90625 L 88.453125 42.796875 L 911.046875 42.796875 Z"/>
        <g id="g1">
            <g id="g2">
                <path id="Shape-copy" fill="#991900" fill-rule="evenodd" stroke="none" d="M 927.550537 685.778381 C 927.550537 552.251282 819.305481 444.006165 685.778381 444.006165 C 552.251282 444.006165 444.006165 552.251282 444.006165 685.778381 C 444.006165 819.305481 552.251282 927.550537 685.778381 927.550537 C 819.305481 927.550537 927.550537 819.305481 927.550537 685.778381 Z"/>
                <path id="Path" fill="#f48f42" fill-rule="evenodd" stroke="#f48f42" stroke-width="14" stroke-linecap="round" stroke-linejoin="round" d="M 637 768 L 535 740 L 583 706 L 505 620 L 546 619 L 540 563 L 585 597 L 607 561 L 647 653 L 698 522 L 725 564 L 779 524 L 772 591 L 822 593 L 734 703 L 833 692 L 813 729 L 865 751 L 813 773 L 832 809 L 720 785 L 714 843 L 637 768 Z"/>
                <path id="path1" fill="none" stroke="#d66d27" stroke-width="16" stroke-linecap="round" d="M 593 847 L 719 628 L 657 736 L 599 650 L 657 736 L 759 743"/>
            </g>
            <path id="Triangle" fill="#1b1b1b" fill-rule="evenodd" stroke="none" d="M 728.505859 437.753906 L 663.894531 325.205078 L 711.470703 325.205078 C 696.598755 266.157837 643.146118 222.445313 579.482422 222.445313 L 579.482422 189.728516 C 661.304443 189.728516 729.528687 247.938904 745.009766 325.205078 L 793.117188 325.205078 L 728.505859 437.753906 Z"/>
            <path id="Triangle-copy" fill="#1b1b1b" fill-rule="evenodd" stroke="none" d="M 421.080078 809.791016 C 339.258118 809.791016 271.033936 751.580505 255.552734 674.314453 L 207.445313 674.314453 L 272.056641 561.765625 L 336.667969 674.314453 L 289.091797 674.314453 C 303.963806 733.361572 357.416443 777.072266 421.080078 777.072266 L 421.080078 809.791016 Z"/>
            <g id="g3">
                <path id="Shape" fill="#07b5ff" fill-rule="evenodd" stroke="none" d="M 555.513184 313.740967 C 555.513184 180.213867 447.268066 71.968811 313.740967 71.968811 C 180.213882 71.968811 71.968796 180.213867 71.968796 313.740967 C 71.968796 447.268066 180.213882 555.513184 313.740967 555.513184 C 447.268066 555.513184 555.513184 447.268066 555.513184 313.740967 Z"/>
                <path id="Sun" fill="#ffdf00" fill-rule="evenodd" stroke="none" d="M 514.6604 330.625 L 470.762054 330.625 C 461.437286 330.625 453.878052 323.065735 453.878052 313.740967 C 453.878052 304.41626 461.437286 296.856995 470.762054 296.856995 L 514.6604 296.856995 C 523.985107 296.856995 531.544373 304.41626 531.544373 313.740967 C 531.544373 323.065735 523.985107 330.625 514.6604 330.625 Z M 436.70697 214.648865 C 432.460205 219.00415 426.199005 220.73822 420.31662 219.188232 C 414.434418 217.638184 409.840576 213.043823 408.291504 207.161316 C 406.742249 201.278809 408.477173 195.017761 412.833008 190.771606 L 443.865753 159.730347 C 450.459412 153.133118 461.152679 153.130005 467.749817 159.723572 C 474.347229 166.317139 474.350281 177.010376 467.756622 183.607666 Z M 313.740997 416.733276 C 256.859985 416.733276 210.748688 370.62207 210.748688 313.740967 C 210.748688 256.859863 256.859985 210.748657 313.740997 210.748657 C 370.621979 210.748657 416.733276 256.859863 416.733276 313.740967 C 416.733276 370.62207 370.621979 416.733276 313.740997 416.733276 Z M 313.740997 173.603943 C 304.41626 173.603943 296.856995 166.044678 296.856995 156.71991 L 296.856995 112.821594 C 296.856995 103.496765 304.41626 95.937561 313.740997 95.937561 C 323.065704 95.937561 330.625 103.496765 330.625 112.821594 L 330.625 156.71991 C 330.625 166.044678 323.065704 173.603943 313.740997 173.603943 Z M 190.775009 214.648865 L 159.725342 183.607666 C 153.131683 177.010376 153.134766 166.317139 159.732147 159.723572 C 166.329285 153.130005 177.022552 153.133118 183.616211 159.730347 L 214.648987 190.771606 C 219.004761 195.017761 220.739746 201.278809 219.19046 207.161316 C 217.641403 213.043823 213.047562 217.638184 207.165359 219.188232 C 201.282974 220.73822 195.021759 219.00415 190.775009 214.648865 Z M 173.603928 313.740967 C 173.603928 323.065735 166.044662 330.625 156.71994 330.625 L 112.821571 330.625 C 103.496841 330.625 95.937592 323.065735 95.937592 313.740967 C 95.937592 304.41626 103.496841 296.856995 112.821571 296.856995 L 156.71994 296.856995 C 166.044662 296.856995 173.603928 304.41626 173.603928 313.740967 Z M 190.775009 412.833069 C 195.021759 408.477783 201.282974 406.743774 207.165359 408.293762 C 213.047562 409.84375 217.641403 414.43811 219.19046 420.320618 C 220.739746 426.203125 219.004761 432.464233 214.648987 436.710388 L 183.616211 467.751587 C 177.022552 474.348877 166.329285 474.351929 159.732147 467.758362 C 153.134766 461.164856 153.131683 450.471619 159.725342 443.874329 Z M 313.740997 453.878052 C 323.065704 453.878052 330.625 461.437317 330.625 470.762024 L 330.625 514.6604 C 330.625 523.985107 323.065704 531.544373 313.740997 531.544373 C 304.41626 531.544373 296.856995 523.985107 296.856995 514.6604 L 296.856995 470.762024 C 296.856995 461.437317 304.41626 453.878052 313.740997 453.878052 Z M 436.70697 412.833069 L 467.756622 443.874329 C 474.350281 450.471619 474.347229 461.164856 467.749817 467.758362 C 461.152679 474.351929 450.459412 474.348877 443.865753 467.751587 L 412.833008 436.710388 C 408.477173 432.464233 406.742249 426.203125 408.291504 420.320618 C 409.840576 414.43811 414.434418 409.84375 420.31662 408.293762 C 426.199005 406.743774 432.460205 408.477783 436.70697 412.833069 Z"/>
                <path id="path2" fill="#2ca500" fill-rule="evenodd" stroke="none" d="M 313.740997 555.513184 C 185.160187 555.513184 80.023102 455.138672 72.410477 328.47113 C 77.279358 328.378357 82.169678 328.330688 87.079559 328.330688 C 271.64032 328.330688 428.220947 394.434387 483.309631 486.075745 C 439.6716 529.017578 379.800903 555.513184 313.740997 555.513184 Z"/>
            </g>
        </g>
    </g>
</svg>
