<?xml version="1.0" encoding="UTF-8"?>
<!-- Generated by Pixelmator Pro 3.5.9 -->
<svg width="1000" height="1000" viewBox="0 0 1000 1000" xmlns="http://www.w3.org/2000/svg">
    <path id="Arrow" fill="#0046ff" fill-rule="evenodd" stroke="#000000" stroke-width="21" d="M 737.328125 364.625 L 731.59375 376.5 L 582.5 376.5 L 582.5 892.5 L 417.5 892.5 L 417.5 376.5 L 268.40625 376.5 L 262.671875 364.625 L 500 66.125 Z"/>
    <g id="g1">
        <path id="Ellipse" fill="#adadad" fill-rule="evenodd" stroke="#000000" stroke-width="10.322081" stroke-linecap="round" stroke-linejoin="round" d="M 500.75 408.953125 L 503.078125 409 L 505.421875 409.109375 L 507.75 409.296875 L 510.0625 409.53125 L 512.359375 409.828125 L 514.625 410.171875 L 516.875 410.578125 L 519.125 411.03125 L 521.328125 411.546875 L 523.53125 412.109375 L 525.6875 412.71875 L 527.859375 413.390625 L 529.984375 414.109375 L 532.09375 414.875 L 534.1875 415.71875 L 536.21875 416.578125 L 538.25 417.484375 L 540.265625 418.453125 L 542.234375 419.46875 L 544.1875 420.53125 L 546.109375 421.640625 L 548 422.78125 L 549.859375 423.984375 L 551.671875 425.21875 L 553.46875 426.484375 L 555.234375 427.796875 L 556.96875 429.171875 L 558.65625 430.546875 L 560.328125 432 L 561.953125 433.46875 L 563.546875 435 L 565.109375 436.5625 L 566.609375 438.140625 L 568.09375 439.75 L 569.546875 441.4375 L 570.9375 443.125 L 572.28125 444.859375 L 573.59375 446.609375 L 574.875 448.40625 L 576.125 450.234375 L 577.3125 452.09375 L 578.453125 453.984375 L 579.578125 455.921875 L 580.609375 457.859375 L 581.625 459.8125 L 582.609375 461.84375 L 583.5 463.84375 L 584.390625 465.90625 L 585.203125 468 L 585.984375 470.09375 L 586.6875 472.234375 L 587.375 474.375 L 587.984375 476.5625 L 588.546875 478.765625 L 589.0625 480.953125 L 589.515625 483.203125 L 589.921875 485.46875 L 590.265625 487.734375 L 590.5625 490.03125 L 590.796875 492.359375 L 590.96875 494.671875 L 591.09375 497 L 591.140625 499.328125 L 591.15625 500.546875 L 591.140625 501.75 L 591.09375 504.09375 L 590.96875 506.421875 L 590.796875 508.734375 L 590.5625 511.0625 L 590.265625 513.359375 L 589.921875 515.625 L 589.515625 517.875 L 589.0625 520.125 L 588.546875 522.328125 L 587.984375 524.53125 L 587.375 526.71875 L 586.6875 528.859375 L 585.984375 530.984375 L 585.203125 533.09375 L 584.390625 535.171875 L 583.515625 537.21875 L 582.609375 539.25 L 581.625 541.28125 L 580.609375 543.234375 L 579.578125 545.171875 L 578.453125 547.109375 L 577.3125 549 L 576.109375 550.859375 L 574.875 552.671875 L 573.609375 554.484375 L 572.28125 556.234375 L 570.9375 557.96875 L 569.546875 559.65625 L 568.09375 561.34375 L 566.609375 562.953125 L 565.109375 564.53125 L 563.53125 566.109375 L 561.953125 567.609375 L 560.34375 569.09375 L 558.65625 570.546875 L 556.96875 571.9375 L 555.234375 573.28125 L 553.484375 574.609375 L 551.671875 575.875 L 549.859375 577.109375 L 548 578.3125 L 546.109375 579.453125 L 544.171875 580.578125 L 542.234375 581.609375 L 540.28125 582.625 L 538.25 583.609375 L 536.21875 584.515625 L 534.171875 585.390625 L 532.09375 586.203125 L 529.984375 586.984375 L 527.859375 587.6875 L 525.71875 588.375 L 523.53125 588.984375 L 521.328125 589.546875 L 519.125 590.0625 L 516.875 590.515625 L 514.625 590.921875 L 512.359375 591.265625 L 510.0625 591.5625 L 507.734375 591.796875 L 505.421875 591.96875 L 503.09375 592.09375 L 500.75 592.140625 L 499.546875 592.15625 L 498.328125 592.140625 L 496 592.09375 L 493.671875 591.96875 L 491.359375 591.796875 L 489.03125 591.5625 L 486.734375 591.265625 L 484.46875 590.921875 L 482.203125 590.515625 L 479.953125 590.0625 L 477.765625 589.546875 L 475.5625 588.984375 L 473.375 588.375 L 471.234375 587.6875 L 469.09375 586.984375 L 467 586.203125 L 464.90625 585.390625 L 462.84375 584.5 L 460.84375 583.609375 L 458.8125 582.625 L 456.859375 581.609375 L 454.921875 580.578125 L 452.984375 579.453125 L 451.09375 578.3125 L 449.234375 577.125 L 447.40625 575.875 L 445.609375 574.59375 L 443.859375 573.28125 L 442.125 571.9375 L 440.4375 570.546875 L 438.75 569.09375 L 437.140625 567.609375 L 435.5625 566.109375 L 434 564.546875 L 432.46875 562.953125 L 431 561.328125 L 429.546875 559.65625 L 428.171875 557.96875 L 426.796875 556.234375 L 425.484375 554.46875 L 424.21875 552.671875 L 422.984375 550.859375 L 421.78125 549 L 420.640625 547.109375 L 419.53125 545.1875 L 418.46875 543.234375 L 417.453125 541.265625 L 416.484375 539.25 L 415.578125 537.21875 L 414.71875 535.1875 L 413.875 533.09375 L 413.109375 530.984375 L 412.390625 528.859375 L 411.71875 526.6875 L 411.109375 524.53125 L 410.546875 522.328125 L 410.03125 520.125 L 409.578125 517.875 L 409.171875 515.625 L 408.828125 513.359375 L 408.53125 511.0625 L 408.296875 508.75 L 408.109375 506.421875 L 408 504.078125 L 407.953125 501.75 L 407.9375 500.546875 L 407.953125 499.328125 L 408 497.015625 L 408.109375 494.671875 L 408.296875 492.34375 L 408.53125 490.03125 L 408.828125 487.734375 L 409.171875 485.46875 L 409.578125 483.203125 L 410.03125 480.953125 L 410.546875 478.765625 L 411.109375 476.5625 L 411.71875 474.40625 L 412.390625 472.234375 L 413.109375 470.09375 L 413.875 468 L 414.71875 465.890625 L 415.59375 463.84375 L 416.484375 461.84375 L 417.453125 459.828125 L 418.46875 457.859375 L 419.53125 455.90625 L 420.640625 453.984375 L 421.78125 452.09375 L 422.96875 450.234375 L 424.21875 448.40625 L 425.484375 446.609375 L 426.796875 444.859375 L 428.171875 443.125 L 429.546875 441.4375 L 431 439.765625 L 432.46875 438.140625 L 434 436.546875 L 435.546875 435 L 437.140625 433.46875 L 438.765625 432 L 440.4375 430.546875 L 442.125 429.171875 L 443.859375 427.796875 L 445.609375 426.484375 L 447.40625 425.21875 L 449.234375 423.96875 L 451.09375 422.78125 L 452.984375 421.640625 L 454.90625 420.53125 L 456.859375 419.46875 L 458.828125 418.453125 L 460.84375 417.484375 L 462.84375 416.59375 L 464.890625 415.71875 L 467 414.875 L 469.09375 414.109375 L 471.234375 413.390625 L 473.40625 412.71875 L 475.5625 412.109375 L 477.765625 411.546875 L 479.953125 411.03125 L 482.203125 410.578125 L 484.46875 410.171875 L 486.734375 409.828125 L 489.03125 409.53125 L 491.34375 409.296875 L 493.671875 409.109375 L 496.015625 409 L 498.328125 408.953125 L 499.546875 408.9375 Z"/>
        <path id="Shape" fill="#777777" fill-rule="evenodd" stroke="none" d="M 548.115234 572.080078 L 428.025391 451.990234 C 434.368286 442.665955 442.486816 434.646118 451.894531 428.417969 L 571.6875 548.210938 C 565.459351 557.618652 557.439514 565.737183 548.115234 572.080078 Z"/>
    </g>
</svg>
